<svg width="431" height="473" viewBox="0 0 431 473" fill="none" xmlns="http://www.w3.org/2000/svg">
<path d="M115.645 313.738L115.645 318.279C115.645 324.697 120.848 329.9 127.267 329.9L176.169 329.9C192.461 329.9 207.446 338.816 215.219 353.134C223.867 338.72 239.444 329.9 256.254 329.9L303.171 329.9C309.589 329.9 314.792 324.697 314.792 318.279L314.792 313.738C314.792 297.414 323.702 282.393 338.026 274.565C323.702 266.738 314.792 251.716 314.792 235.393L314.792 231.582L314.792 225.442C314.792 209.119 323.702 194.098 338.026 186.27C323.702 178.443 314.792 163.421 314.792 147.098L314.792 142.424C314.792 135.979 309.567 130.753 303.121 130.753L256.254 130.753C239.444 130.753 223.867 121.934 215.219 107.52C207.446 121.837 192.461 130.753 176.169 130.753L127.316 130.753C120.871 130.753 115.645 135.979 115.645 142.424L115.645 147.098C115.645 163.421 106.736 178.443 92.4116 186.27L98.1646 189.414C108.942 195.303 115.645 206.605 115.645 218.886L115.645 235.393C115.645 251.716 106.736 266.738 92.4116 274.565C106.736 282.393 115.645 297.414 115.645 313.738Z" fill="white"/>
<path d="M92.4116 274.565V274.565C106.736 282.393 115.645 297.414 115.645 313.738L115.645 318.279C115.645 324.697 120.848 329.9 127.267 329.9L176.169 329.9C192.461 329.9 207.446 338.816 215.219 353.134V353.134M92.4116 274.565V274.565C106.736 266.738 115.645 251.716 115.645 235.393L115.645 218.886V218.886C115.645 206.605 108.942 195.303 98.1646 189.414L92.4116 186.27M92.4116 274.565L12.3242 274.565C6.80131 274.565 2.32415 279.042 2.32415 284.565L2.32415 336.538M92.4116 186.27V186.27C106.736 178.443 115.645 163.421 115.645 147.098L115.645 142.424C115.645 135.979 120.871 130.753 127.316 130.753L176.169 130.753C192.461 130.753 207.446 121.837 215.219 107.52V107.52M92.4116 186.27L12.3241 186.27C6.8013 186.27 2.32415 181.793 2.32414 176.27L2.32414 137.392M338.026 186.27V186.27C323.702 178.443 314.792 163.421 314.792 147.098L314.792 142.424C314.792 135.979 309.567 130.753 303.121 130.753L256.254 130.753C239.444 130.753 223.867 121.934 215.219 107.52V107.52M338.026 186.27V186.27C323.702 194.098 314.792 209.119 314.792 225.442L314.792 231.582L314.792 235.393C314.792 251.716 323.702 266.738 338.026 274.565V274.565M338.026 186.27L418.114 186.27C423.637 186.27 428.114 181.793 428.114 176.27L428.114 137.392M338.026 274.565V274.565C323.702 282.393 314.792 297.414 314.792 313.738L314.792 318.279C314.792 324.697 309.589 329.9 303.171 329.9L256.254 329.9C239.444 329.9 223.867 338.72 215.219 353.134V353.134M338.026 274.565L418.114 274.565C423.637 274.565 428.114 279.043 428.114 284.565L428.114 336.538M215.219 353.134L215.219 472.954M215.219 107.52L215.219 0.312338" stroke="#707086" stroke-width="4"/>
</svg>
