<svg width="35" height="65" viewBox="0 0 35 65" fill="none" xmlns="http://www.w3.org/2000/svg">
   <path d="M17.3636 1V27.6364M17.3636 27.6364H22.3582C22.6502 27.6364 22.9275 27.7639 23.1175 27.9856L33.4865 40.0828C33.6419 40.264 33.7273 40.4949 33.7273 40.7336V44.8182C33.7273 45.3705 33.2796 45.8182 32.7273 45.8182H24.6364M17.3636 27.6364H12.369C12.0771 27.6364 11.7998 27.7639 11.6098 27.9856L1.24074 40.0828C1.08539 40.264 1 40.4949 1 40.7336L1 44.8182C1 45.3705 1.44772 45.8182 2 45.8182H10.0909M10.0909 45.8182V45.8182C10.0909 49.8348 13.347 53.0909 17.3636 53.0909V53.0909C21.3803 53.0909 24.6364 49.8348 24.6364 45.8182V45.8182M10.0909 45.8182H24.6364M17.3636 56.7273V64M26.4545 51.2727H33.7273M8.27273 51.2727H1M22.8182 54.9091L28.2727 60.3636M11.9091 54.9091L6.45455 60.3636" stroke="#D0264F" stroke-width="2" stroke-linecap="round"/>
</svg>
