<svg width="209" height="111" viewBox="0 0 209 111" fill="none" xmlns="http://www.w3.org/2000/svg">
   <path d="M87.4694 48.2211C87.5352 48.5959 87.6801 48.9239 87.904 49.205C88.1279 49.4862 88.4176 49.7071 88.7732 49.8677C89.142 50.015 89.5634 50.0886 90.0375 50.0886C90.8145 50.0886 91.394 49.9146 91.776 49.5665C92.1579 49.205 92.3489 48.77 92.3489 48.2612C92.3489 47.8596 92.2303 47.525 91.9933 47.2572C91.7562 46.9895 91.4204 46.7619 90.9858 46.5745C90.5643 46.387 90.0704 46.2063 89.5041 46.0323C88.9773 45.8716 88.4505 45.6976 87.9237 45.5102C87.4101 45.3228 86.9426 45.0885 86.5211 44.8074C86.1129 44.5262 85.7836 44.1648 85.5334 43.723C85.2963 43.2678 85.1778 42.6989 85.1778 42.0161C85.1778 41.1594 85.3819 40.4298 85.7902 39.8273C86.2116 39.2249 86.7845 38.7698 87.5089 38.4619C88.2332 38.154 89.0695 38 90.0178 38C90.8211 38 91.5455 38.1205 92.1908 38.3615C92.8361 38.589 93.3761 38.9304 93.8107 39.3856C94.2585 39.8273 94.5878 40.3762 94.7985 41.0322L92.3291 41.7149C92.2632 41.4204 92.1184 41.1661 91.8945 40.9519C91.6706 40.7377 91.394 40.5703 91.0648 40.4498C90.7487 40.316 90.4129 40.249 90.0573 40.249C89.6622 40.2357 89.3 40.2959 88.9708 40.4298C88.6415 40.5636 88.3781 40.7578 88.1806 41.0121C87.983 41.2665 87.8842 41.561 87.8842 41.8957C87.8842 42.2705 87.9962 42.5717 88.2201 42.7993C88.444 43.0135 88.7403 43.2009 89.109 43.3616C89.4778 43.5088 89.8927 43.6561 90.3536 43.8033C90.8936 43.964 91.4401 44.1514 91.9933 44.3656C92.5596 44.5664 93.0732 44.8274 93.5342 45.1487C93.9951 45.4566 94.3639 45.8516 94.6404 46.3335C94.9302 46.8154 95.075 47.4245 95.075 48.1608C95.075 48.9373 94.8907 49.6401 94.5219 50.2693C94.1663 50.8985 93.6263 51.4005 92.902 51.7754C92.1776 52.1502 91.2689 52.3376 90.1758 52.3376C89.2802 52.3376 88.4637 52.2038 87.7262 51.936C87.0018 51.6683 86.4026 51.28 85.9285 50.7713C85.4544 50.2492 85.1449 49.6334 85 48.9239L87.4694 48.2211Z" fill="#191919"/>
   <path d="M99.872 52.1971H97.205V38.1406H100.247L104.653 48.6629L109.058 38.1406H112.1V52.1971H109.433V43.1206L105.7 52.1971H103.606L99.872 43.1206V52.1971Z" fill="#191919"/>
   <path d="M121.102 40.4097H120.39L116.321 52.1971H113.575L118.533 38.1406H122.939L127.897 52.1971H125.151L121.102 40.4097ZM116.578 46.695H124.638V48.9641H116.578V46.695Z" fill="#191919"/>
   <path d="M137.286 42.478C137.286 41.8488 137.096 41.3468 136.714 40.9719C136.345 40.5971 135.765 40.4097 134.975 40.4097H132.032V44.5664H134.975C135.502 44.5664 135.937 44.4861 136.279 44.3254C136.621 44.1514 136.872 43.9104 137.03 43.6025C137.201 43.2812 137.286 42.9064 137.286 42.478ZM135.054 38.1406C136.174 38.1406 137.096 38.3414 137.82 38.743C138.557 39.1312 139.104 39.66 139.46 40.3294C139.828 40.9853 140.013 41.7015 140.013 42.478C140.013 43.0001 139.92 43.5222 139.736 44.0443C139.552 44.553 139.262 45.0216 138.867 45.4499C138.472 45.8649 137.958 46.1996 137.326 46.454C136.707 46.7083 135.95 46.8355 135.054 46.8355H132.032V52.1971H129.365V38.1406H135.054ZM136.556 45.9319L140.289 52.1971H137.306L133.731 45.9319H136.556Z" fill="#191919"/>
   <path d="M141.677 38.1406H152.878V40.4097H148.611V52.1971H145.944V40.4097H141.677V38.1406Z" fill="#191919"/>
   <path d="M93.4551 62.1404C93.4551 61.5112 93.2642 61.0092 92.8822 60.6343C92.5135 60.2595 91.934 60.0721 91.1438 60.0721H88.2003V64.2288H91.1438C91.6706 64.2288 92.1052 64.1484 92.4476 63.9878C92.79 63.8138 93.0403 63.5728 93.1983 63.2649C93.3695 62.9436 93.4551 62.5688 93.4551 62.1404ZM91.2228 57.8029C92.3423 57.8029 93.2642 58.0037 93.9885 58.4054C94.726 58.7936 95.2726 59.3224 95.6282 59.9917C95.9969 60.6477 96.1813 61.3639 96.1813 62.1404C96.1813 62.6625 96.0891 63.1846 95.9047 63.7067C95.7204 64.2154 95.4306 64.6839 95.0355 65.1123C94.6404 65.5273 94.1268 65.862 93.4946 66.1164C92.8757 66.3707 92.1184 66.4979 91.2228 66.4979H88.2003V71.8594H85.5334V57.8029H91.2228ZM92.7242 65.5942L96.4579 71.8594H93.4749L89.8992 65.5942H92.7242Z" fill="#191919"/>
   <path d="M108.217 60.0721H101.165V63.6464H106.439V65.8352H101.165V69.5903H108.217V71.8594H98.4976V57.8029H108.217V60.0721Z" fill="#191919"/>
   <path d="M120.137 57.8029H122.982L117.905 71.8594H114.685L109.628 57.8029H112.472L116.305 69.0883L120.137 57.8029Z" fill="#191919"/>
   <path d="M142.256 57.8029V69.5903H148.4V71.8594H139.589V57.8029H142.256Z" fill="#191919"/>
   <path d="M150.121 57.8029H152.788V66.6786C152.788 67.3346 152.92 67.8901 153.183 68.3453C153.446 68.7871 153.802 69.1218 154.25 69.3493C154.711 69.5769 155.238 69.6907 155.83 69.6907C156.436 69.6907 156.969 69.5769 157.43 69.3493C157.891 69.1218 158.254 68.7871 158.517 68.3453C158.78 67.8901 158.912 67.3346 158.912 66.6786V57.8029H161.579V66.538C161.579 67.4618 161.421 68.265 161.105 68.9477C160.789 69.6305 160.354 70.1994 159.801 70.6546C159.261 71.1098 158.642 71.4511 157.944 71.6787C157.259 71.8929 156.541 72 155.791 72C154.79 72 153.855 71.7992 152.986 71.3976C152.129 70.996 151.438 70.3935 150.911 69.5903C150.384 68.7871 150.121 67.7697 150.121 66.538V57.8029Z" fill="#191919"/>
   <path d="M163.554 57.8029H174.755V60.0721H170.488V71.8594H167.821V60.0721H163.554V57.8029Z" fill="#191919"/>
   <path d="M176.746 57.8029H179.413V71.8594H176.746V57.8029Z" fill="#191919"/>
   <path d="M209 57.8029V71.8594H206.294L200.229 62.1002V71.8594H197.562V57.8029H200.268L206.333 67.5622V57.8029H209Z" fill="#191919"/>
   <g filter="url(#filter0_d_520_458)">
   <path d="M47.1212 33.6199C47.1212 32.4402 47.7455 31.3487 48.7623 30.7506L66.7223 20.1859C67.6099 19.6637 68.729 20.3037 68.729 21.3336V31.9304C68.729 33.11 68.1046 34.2016 67.0879 34.7997L49.1279 45.3644C48.2402 45.8866 47.1212 45.2465 47.1212 44.2167V33.6199Z" fill="url(#paint0_linear_520_458)"/>
   <path d="M50.3989 90.0629L70 78.5328L57.4236 71.1018L50.0333 75.4491C49.0165 76.0472 48.3922 77.1387 48.3922 78.3184V88.9152C48.3922 89.945 49.5112 90.585 50.3989 90.0629Z" fill="url(#paint1_linear_520_458)"/>
   <path d="M70 65.61C70 64.4292 69.3745 63.3368 68.3562 62.7391L32.7299 41.828C31.677 41.21 30.3702 41.218 29.3249 41.8488L20.6436 47.0875C19.7808 47.6081 19.7866 48.8613 20.6542 49.3739L57.4236 71.1018L70 78.5328V65.61Z" fill="#312EE9"/>
   </g>
   <path d="M126.788 68.5859C124.743 65.6582 125.894 61.3625 129.129 59.8495C131.901 58.5526 135.007 59.3848 136.76 61.8943" stroke="#191919" stroke-width="2.5"/>
   <path d="M182.19 67.628C183.943 70.1374 187.049 70.9696 189.822 69.6728C193.056 68.1598 194.207 63.8641 192.162 60.9364" stroke="#191919" stroke-width="2.5"/>
   <defs>
   <filter id="filter0_d_520_458" x="0" y="0" width="90" height="110.249" filterUnits="userSpaceOnUse" color-interpolation-filters="sRGB">
   <feFlood flood-opacity="0" result="BackgroundImageFix"/>
   <feColorMatrix in="SourceAlpha" type="matrix" values="0 0 0 0 0 0 0 0 0 0 0 0 0 0 0 0 0 0 127 0" result="hardAlpha"/>
   <feOffset/>
   <feGaussianBlur stdDeviation="10"/>
   <feComposite in2="hardAlpha" operator="out"/>
   <feColorMatrix type="matrix" values="0 0 0 0 0 0 0 0 0 0 0 0 0 0 0 0 0 0 0.15 0"/>
   <feBlend mode="normal" in2="BackgroundImageFix" result="effect1_dropShadow_520_458"/>
   <feBlend mode="normal" in="SourceGraphic" in2="effect1_dropShadow_520_458" result="shape"/>
   </filter>
   <linearGradient id="paint0_linear_520_458" x1="69.8599" y1="40.3799" x2="18.2716" y2="67.4349" gradientUnits="userSpaceOnUse">
   <stop stop-color="#FF4672"/>
   <stop offset="1" stop-color="#D12650"/>
   </linearGradient>
   <linearGradient id="paint1_linear_520_458" x1="53.8235" y1="29.8741" x2="-0.0324635" y2="54.9485" gradientUnits="userSpaceOnUse">
   <stop stop-color="#D0264F"/>
   <stop offset="1" stop-color="#FF86A3"/>
   </linearGradient>
   </defs>
</svg>